<?xml version="1.0" standalone="no"?>
<!DOCTYPE svg PUBLIC "-//W3C//DTD SVG 20010904//EN"
 "http://www.w3.org/TR/2001/REC-SVG-20010904/DTD/svg10.dtd">
<svg version="1.0" xmlns="http://www.w3.org/2000/svg"
 width="298.000000pt" height="144.000000pt" viewBox="0 0 298.000000 144.000000"
 preserveAspectRatio="xMidYMid meet">
<metadata>
Created by potrace 1.16, written by Peter Selinger 2001-2019
</metadata>
<g transform="translate(0.000000,144.000000) scale(0.100000,-0.100000)"
fill="#000000" stroke="none">
<path d="M0 922 l0 -509 797 -6 c438 -4 1108 -7 1490 -7 l693 0 0 515 0 515
-1490 0 -1490 0 0 -508z m2848 -4 l2 -378 -790 0 -790 0 0 373 c0 206 3 377 7
381 4 3 358 5 787 4 l781 -3 3 -377z"/>
<path d="M2047 174 c-3 -3 -4 -18 -1 -33 4 -19 -1 -32 -20 -50 -29 -27 -42
-22 -51 18 -3 16 -17 37 -30 45 -31 20 -38 20 -31 -2 3 -9 -3 -32 -14 -50 -20
-33 -50 -41 -80 -22 -12 8 -10 14 14 39 29 30 28 51 -3 51 -25 0 -41 -20 -41
-52 0 -17 -7 -31 -21 -38 -44 -24 -96 10 -73 47 16 25 51 29 57 6 4 -16 5 -16
6 -1 1 22 -15 31 -43 24 -15 -4 -28 -20 -39 -47 -19 -49 -38 -47 -50 4 -5 20
-13 37 -18 37 -6 0 -18 -19 -29 -42 l-19 -42 -10 27 c-6 16 -11 35 -11 43 0
25 -14 15 -38 -26 -12 -22 -27 -40 -33 -40 -5 0 -16 15 -24 33 -8 17 -14 25
-15 16 0 -9 -9 -24 -20 -34 -16 -15 -22 -15 -35 -5 -8 7 -15 18 -15 25 0 18
31 42 60 48 25 4 24 4 -2 6 -29 1 -68 -29 -68 -53 0 -16 -28 -41 -37 -33 -3 4
-9 23 -12 43 -3 20 -10 37 -15 38 -14 1 -64 -85 -65 -109 0 -11 12 6 26 37 27
61 43 74 43 35 0 -13 6 -32 14 -42 11 -16 16 -17 29 -7 12 11 19 11 35 1 16
-10 25 -10 45 3 22 15 26 15 40 1 18 -18 32 -11 56 28 l17 28 13 -34 c7 -19
17 -35 22 -35 5 0 18 19 28 43 l18 42 12 -42 c12 -44 30 -54 51 -28 11 13 14
13 27 0 19 -19 67 -19 83 0 12 14 15 14 30 0 35 -31 85 -16 105 31 17 42 41
44 50 5 3 -16 13 -35 21 -42 12 -10 21 -6 47 19 26 25 36 29 45 20 19 -19 14
-48 -10 -58 -14 -5 -17 -9 -7 -9 34 -2 51 43 27 68 -7 6 -13 24 -13 38 0 25
-15 40 -28 27z"/>
</g>
</svg>
